<?xml version="1.0" encoding="UTF-8" standalone="no"?>
<!-- Created with Inkscape (http://www.inkscape.org/) -->

<svg
   width="22mm"
   height="22mm"
   viewBox="0 0 22 22"
   version="1.1"
   id="svg5"
   xml:space="preserve"
   inkscape:version="1.2.2 (732a01da63, 2022-12-09)"
   sodipodi:docname="AandBTap.svg"
   inkscape:export-filename="ThumbPinkyUp.png"
   inkscape:export-xdpi="96"
   inkscape:export-ydpi="96"
   xmlns:inkscape="http://www.inkscape.org/namespaces/inkscape"
   xmlns:sodipodi="http://sodipodi.sourceforge.net/DTD/sodipodi-0.dtd"
   xmlns="http://www.w3.org/2000/svg"
   xmlns:svg="http://www.w3.org/2000/svg"><sodipodi:namedview
     id="namedview7"
     pagecolor="#ffffff"
     bordercolor="#eeeeee"
     borderopacity="1"
     inkscape:showpageshadow="0"
     inkscape:pageopacity="1"
     inkscape:pagecheckerboard="false"
     inkscape:deskcolor="#505050"
     inkscape:document-units="mm"
     showgrid="false"
     inkscape:zoom="64.000009"
     inkscape:cx="-3.1718746"
     inkscape:cy="1.7109373"
     inkscape:window-width="1440"
     inkscape:window-height="890"
     inkscape:window-x="214"
     inkscape:window-y="1073"
     inkscape:window-maximized="1"
     inkscape:current-layer="svg5"
     showguides="false"
     inkscape:pageshadow="2"><inkscape:grid
       type="xygrid"
       id="grid515"
       originx="0"
       originy="0" /><sodipodi:guide
       position="160.66239,-139.8317"
       orientation="0,-1"
       id="guide1784"
       inkscape:locked="false" /></sodipodi:namedview><defs
     id="defs2"><inkscape:path-effect
       effect="skeletal"
       id="path-effect1727"
       is_visible="true"
       lpeversion="1"
       pattern="m 0.7071078,0.70710547 3,2.99999993 -3,3.0000001"
       copytype="repeated"
       prop_scale="0.89"
       scale_y_rel="false"
       spacing="4.5"
       normal_offset="0"
       tang_offset="0"
       prop_units="false"
       vertical_pattern="false"
       hide_knot="false"
       fuse_tolerance="0" /><inkscape:path-effect
       effect="bounding_box"
       id="path-effect6782"
       is_visible="true"
       lpeversion="1"
       linkedpath=""
       visualbounds="false" /><inkscape:path-effect
       effect="skeletal"
       id="path-effect6561"
       is_visible="true"
       lpeversion="1"
       pattern="m 96.500005,38.5 3,3.000002 L 96.5,44.500001"
       copytype="repeated_stretched"
       prop_scale="1"
       scale_y_rel="false"
       spacing="4"
       normal_offset="0"
       tang_offset="0"
       prop_units="false"
       vertical_pattern="false"
       hide_knot="false"
       fuse_tolerance="0" /><inkscape:path-effect
       effect="skeletal"
       id="path-effect6050"
       is_visible="true"
       lpeversion="1"
       pattern="M 0,0 H 1"
       copytype="repeated"
       prop_scale="1"
       scale_y_rel="false"
       spacing="0"
       normal_offset="0"
       tang_offset="0"
       prop_units="false"
       vertical_pattern="false"
       hide_knot="false"
       fuse_tolerance="0" /><filter
       style="color-interpolation-filters:sRGB"
       inkscape:label="Fade to Black or White"
       id="filter2067"
       x="-0.0036743407"
       y="-0.0028684288"
       width="1.0073209"
       height="1.0035177"><feColorMatrix
         values="0.5 0 0 0 0.5 0 0.5 0 0 0.5 0 0 0.5 0 0.5 0 0 0 1 0"
         id="feColorMatrix2065"
         result="fbSourceGraphic" /><feColorMatrix
         result="fbSourceGraphicAlpha"
         in="fbSourceGraphic"
         values="0 0 0 -1 0 0 0 0 -1 0 0 0 0 -1 0 0 0 0 1 0"
         id="feColorMatrix2081" /><feColorMatrix
         id="feColorMatrix2083"
         values="0.5 0 0 0 0.5 0 0.5 0 0 0.5 0 0 0.5 0 0.5 0 0 0 1 0"
         in="fbSourceGraphic" /></filter><marker
       markerWidth="9"
       markerHeight="5.8000002"
       refX="2"
       refY="5.1999998"
       orient="auto"
       id="marker9619"
       viewBox="0 0 15.872391 10.28801"
       preserveAspectRatio="none"
       markerUnits="userSpaceOnUse"><path
         id="path9617"
         style="fill:#000000;fill-opacity:1;stroke:none;stroke-width:1.35692;stroke-linecap:square;stroke-dasharray:none;stroke-opacity:1"
         d="M 5.5922268,5.1422891 0,8.049978 V 2.2345965 Z M 10.728416,10.28801 A 5.1440001,5.1440001 0 0 1 5.5844031,5.1440126 5.1440001,5.1440001 0 0 1 10.728416,0 5.1440001,5.1440001 0 0 1 15.872391,5.1440126 5.1440001,5.1440001 0 0 1 10.728416,10.28801 Z" /></marker><marker
       markerWidth="7.7142859"
       markerHeight="5.0001698"
       refX="2"
       refY="5"
       orient="auto"
       id="marker9619-9"
       viewBox="0 0 15.872391 10.28801"
       preserveAspectRatio="xMidYMid"><path
         id="path9617-6"
         style="fill:#000000;fill-opacity:1;stroke:none;stroke-width:1.35692;stroke-linecap:square;stroke-dasharray:none;stroke-opacity:1"
         d="M 5.5922268,5.1422891 0,8.049978 V 2.2345965 Z M 10.728416,10.28801 A 5.1440001,5.1440001 0 0 1 5.5844031,5.1440126 5.1440001,5.1440001 0 0 1 10.728416,0 5.1440001,5.1440001 0 0 1 15.872391,5.1440126 5.1440001,5.1440001 0 0 1 10.728416,10.28801 Z" /></marker><marker
       markerWidth="3.5"
       markerHeight="2.2555556"
       refX="2"
       refY="5.1999998"
       orient="auto"
       id="marker9619-4"
       viewBox="0 0 15.872391 10.28801"
       preserveAspectRatio="xMidYMid"
       markerUnits="userSpaceOnUse"><path
         id="path9617-64"
         style="fill:#000000;fill-opacity:1;stroke:none;stroke-width:1.35692;stroke-linecap:square;stroke-dasharray:none;stroke-opacity:1"
         d="M 5.5922268,5.1422891 0,8.049978 V 2.2345965 Z M 10.728416,10.28801 A 5.1440001,5.1440001 0 0 1 5.5844031,5.1440126 5.1440001,5.1440001 0 0 1 10.728416,0 5.1440001,5.1440001 0 0 1 15.872391,5.1440126 5.1440001,5.1440001 0 0 1 10.728416,10.28801 Z" /></marker><marker
       markerWidth="3.5"
       markerHeight="2.2555556"
       refX="2"
       refY="5.1999998"
       orient="auto"
       id="marker754"
       viewBox="0 0 15.872391 10.28801"
       preserveAspectRatio="xMidYMid"
       markerUnits="userSpaceOnUse"><path
         id="path752"
         style="fill:#000000;fill-opacity:1;stroke:none;stroke-width:1.35692;stroke-linecap:square;stroke-dasharray:none;stroke-opacity:1"
         d="M 5.5922268,5.1422891 0,8.049978 V 2.2345965 Z M 10.728416,10.28801 A 5.1440001,5.1440001 0 0 1 5.5844031,5.1440126 5.1440001,5.1440001 0 0 1 10.728416,0 5.1440001,5.1440001 0 0 1 15.872391,5.1440126 5.1440001,5.1440001 0 0 1 10.728416,10.28801 Z" /></marker></defs><path
     id="circle490-7"
     style="display:inline;fill:#000000;fill-opacity:1;stroke-width:0.333334;stroke-linecap:round"
     d="M 0.9670684,2.0319769e-4 A 0.96666737,0.96666737 0 0 1 4.0106782e-4,0.96687057 0.96666737,0.96666737 0 0 1 -0.96626493,2.0319769e-4 0.96666737,0.96666737 0 0 1 4.0106782e-4,-0.96646413 0.96666737,0.96666737 0 0 1 0.9670684,2.0319769e-4 Z"
     inkscape:label="Minicon" /></svg>
